<?xml version="1.0" standalone="no"?>
<!DOCTYPE svg PUBLIC "-//W3C//DTD SVG 20010904//EN"
 "http://www.w3.org/TR/2001/REC-SVG-20010904/DTD/svg10.dtd">
<svg version="1.0" xmlns="http://www.w3.org/2000/svg"
 width="1024.000000pt" height="1024.000000pt" viewBox="0 0 1024.000000 1024.000000"
 preserveAspectRatio="xMidYMid meet">
<metadata>
Created by potrace 1.11, written by Peter Selinger 2001-2013
</metadata>
<g transform="translate(0.000000,1024.000000) scale(0.100000,-0.100000)"
fill="#000000" stroke="none">
<path d="M1301 10223 c8 -10 20 -24 27 -31 7 -8 51 -62 99 -120 48 -59 90
-109 94 -112 4 -4 258 -306 440 -525 25 -30 98 -116 123 -145 11 -14 32 -39
46 -55 l25 -31 0 -515 0 -515 -45 -39 c-213 -189 -406 -388 -535 -550 -22 -27
-43 -52 -46 -55 -13 -11 -179 -240 -236 -325 -129 -195 -274 -457 -365 -665
-55 -124 -120 -289 -137 -345 -7 -22 -16 -49 -21 -60 -17 -40 -102 -330 -115
-395 -6 -26 -20 -91 -37 -170 -16 -75 -40 -227 -53 -340 -4 -30 -9 -66 -10
-80 -28 -224 -27 -729 1 -965 31 -262 43 -334 114 -645 16 -68 86 -304 107
-360 3 -8 7 -20 8 -25 5 -23 100 -258 143 -355 64 -145 212 -430 238 -461 8
-8 14 -19 14 -23 0 -4 8 -19 19 -34 10 -15 53 -81 97 -147 43 -66 82 -124 86
-130 5 -5 41 -54 81 -107 40 -53 84 -110 98 -125 13 -15 34 -41 46 -56 91
-117 318 -348 502 -511 42 -37 44 -41 46 -98 2 -56 -1 -63 -39 -111 -22 -29
-43 -54 -47 -57 -3 -3 -41 -48 -84 -100 -43 -52 -81 -97 -85 -100 -3 -3 -25
-30 -50 -60 -25 -30 -47 -57 -50 -60 -3 -3 -63 -74 -133 -158 -70 -84 -138
-165 -151 -180 -75 -86 -226 -271 -226 -276 0 -3 1583 -6 3518 -6 l3517 0 285
341 c157 188 296 354 310 369 28 32 28 33 120 144 36 44 75 91 88 105 29 33
32 36 127 151 43 52 81 97 84 100 4 3 49 57 100 120 52 63 100 120 106 125 14
13 65 80 65 86 0 3 -252 4 -560 4 -308 0 -560 2 -560 4 0 2 28 36 63 75 188
214 295 359 492 666 91 141 295 549 340 680 5 16 18 48 27 70 37 89 137 405
158 500 5 19 18 76 29 127 12 51 24 109 27 130 3 21 10 57 15 81 5 23 11 57
14 75 27 197 30 223 42 372 15 192 7 735 -12 837 -3 11 -7 46 -10 77 -4 31 -8
63 -10 71 -2 8 -7 40 -10 70 -3 30 -8 62 -10 70 -2 8 -7 31 -10 50 -85 500
-308 1088 -588 1545 -127 209 -327 486 -434 603 -18 20 -57 63 -86 96 -162
186 -425 426 -652 596 -307 230 -594 396 -980 565 -240 105 -665 231 -945 280
-47 8 -96 17 -110 19 -14 3 -47 7 -75 11 -27 3 -63 8 -80 10 -230 36 -760 41
-1040 11 -16 -2 -61 -7 -100 -11 l-70 -7 0 511 0 511 -1594 0 c-1515 0 -1593
-1 -1580 -17z"/>
</g>
</svg>
